# xmcd
#
# Track frame offsets:
#	150
#	19010
#	32694
#	48920
#	64467
#	76357
#	90372
#	101667
#	114825
#	128014
#	140263
#	150931
#	165096
#	180581
#	196922
#	212323
#	224669
#	236246
#	253636
#	264547
#
# Disc length: 3722 seconds
#
# Revision: 1
# Processed by: cddbd v1.5.2PL0 Copyright (c) Steve Scherf et al.
# Submitted via: audiograbber 1.83.01
#
DISCID=000e8814
DTITLE=Dolly Parton - The Very Best Of
DYEAR=2007
DGENRE=Country
TTITLE0=Islands In The Stream
TTITLE1=9 To 5
TTITLE2=Romeo (Album Version)
TTITLE3=Applejack
TTITLE4=Baby I'm Burnin'
TTITLE5=Coat Of Many Colors
TTITLE6=Dumb Blonde (Album Version)
TTITLE7=Here You Come Again
TTITLE8=I Will Always Love You (Original Version)
TTITLE9=Jolene
TTITLE10=Love Is Like A Butterfly
TTITLE11=My Tennessee Mountain Home
TTITLE12=Old Flames Can't Hold A Candle To You
TTITLE13=Potential New Boyfriend
TTITLE14=Tennessee Homesick Blues
TTITLE15=The Bargain Store
TTITLE16=Why'd You Come In Here Lookin' Like That (Album Version)
TTITLE17=To Know Him Is To Love Him
TTITLE18=Silver Threads And Golden Needles (Album Version)
TTITLE19=Everything's Beautiful (In It's Own Way) (Album Version)
EXTD=
EXTT0=
EXTT1=
EXTT2=
EXTT3=
EXTT4=
EXTT5=
EXTT6=
EXTT7=
EXTT8=
EXTT9=
EXTT10=
EXTT11=
EXTT12=
EXTT13=
EXTT14=
EXTT15=
EXTT16=
EXTT17=
EXTT18=
EXTT19=
PLAYORDER=
